<svg width="51" height="54" viewBox="0 0 51 54" fill="none" xmlns="http://www.w3.org/2000/svg">
<path d="M36.4912 0C32.7635 0 29.0358 1.4083 26.1852 3.95664L5.86564 22.1974C-1.95521 29.373 -1.95521 40.9747 5.86564 48.2174C13.6865 55.393 26.3314 55.393 34.2254 48.2174L43.3619 39.8347L38.3185 35.2074L29.8398 42.7854L29.182 43.6572C24.1387 48.2844 15.9523 48.2844 10.909 43.6572C5.93873 39.097 6.08492 31.7202 10.909 27.0929L31.2286 8.65096C34.0792 6.03555 38.8302 6.03555 41.7539 8.65096C44.6044 11.2664 44.4583 15.4242 41.7539 18.1067L23.4808 34.6709C22.7499 35.3415 21.5073 35.3415 20.7033 34.6709C19.9724 34.0003 19.9724 32.8602 20.7033 32.1226L21.1419 31.9214L27.7933 25.6176L22.7499 20.9903L15.66 27.4953C12.1516 30.7143 12.1516 36.0121 15.66 39.2311C19.1684 42.4501 24.9427 42.5171 28.4511 39.2311L46.7241 22.868C52.4253 17.6372 52.4253 9.18745 46.7241 4.0237C43.8735 1.4083 40.2189 0.0670617 36.4181 0.0670617L36.4912 0Z" fill="black"/>
</svg>
