<svg width="72" height="54" viewBox="0 0 72 54" fill="none" xmlns="http://www.w3.org/2000/svg">
<path d="M36.27 0C13.5 0 0 27 0 27C0 27 13.5 54 36.27 54C58.5 54 72 27 72 27C72 27 58.5 0 36.27 0ZM36 9C45.99 9 54 17.1 54 27C54 36.99 45.99 45 36 45C26.1 45 18 36.99 18 27C18 17.1 26.1 9 36 9ZM36 18C31.05 18 27 22.05 27 27C27 31.95 31.05 36 36 36C40.95 36 45 31.95 45 27C45 26.1 44.64 25.29 44.46 24.48C43.74 25.92 42.3 27 40.5 27C37.98 27 36 25.02 36 22.5C36 20.7 37.08 19.26 38.52 18.54C37.71 18.27 36.9 18 36 18Z" fill="black"/>
</svg>
